<svg width="158" height="134" viewBox="0 0 158 134" fill="none" xmlns="http://www.w3.org/2000/svg">
<g clip-path="url(#clip0_259_2166)">
<path d="M133.795 45.7363C135.475 49.0393 136.799 52.4461 140.505 52.4461C142.284 52.4461 143.991 51.7392 145.249 50.4808C146.508 49.2225 147.215 47.5158 147.215 45.7363C147.215 43.9567 146.508 42.25 145.249 40.9917C143.991 39.7334 142.284 39.0264 140.505 39.0264C136.739 38.9793 130.668 39.5883 133.795 45.7363Z" fill="#2F2E41"/>
<path d="M139.069 126.431L136.201 127.07L132.372 116.314L136.604 115.37L139.069 126.431Z" fill="#A0616A"/>
<path d="M140.419 129.048L131.173 131.108L131.147 130.991C131.042 130.519 131.03 130.03 131.114 129.553C131.197 129.076 131.374 128.62 131.634 128.211C131.893 127.803 132.231 127.449 132.627 127.171C133.024 126.893 133.471 126.696 133.944 126.59L133.944 126.59L139.591 125.332L140.419 129.048Z" fill="#2F2E41"/>
<path d="M147.588 130.276H144.65L143.252 118.944L147.588 118.944L147.588 130.276Z" fill="#A0616A"/>
<path d="M148.337 133.123L138.864 133.123V133.003C138.864 132.519 138.96 132.04 139.145 131.592C139.33 131.145 139.602 130.738 139.944 130.396C140.287 130.054 140.693 129.782 141.14 129.597C141.588 129.412 142.067 129.316 142.551 129.316H142.552L148.337 129.316L148.337 133.123Z" fill="#2F2E41"/>
<path d="M147.607 124.337H143.857C143.597 124.336 143.345 124.242 143.149 124.07C142.953 123.899 142.825 123.663 142.789 123.405L139.39 97.1127C139.378 97.0305 139.339 96.9547 139.278 96.8983C139.217 96.8418 139.139 96.8081 139.056 96.8029C138.973 96.7977 138.891 96.8213 138.824 96.8697C138.756 96.9181 138.708 96.9883 138.686 97.0685L136.672 104.576L138.488 121.675C138.519 121.938 138.451 122.204 138.298 122.421C138.145 122.637 137.918 122.79 137.659 122.85L134.685 123.536C134.42 123.596 134.143 123.554 133.908 123.42C133.673 123.285 133.496 123.068 133.414 122.81L128.624 106.187C128.238 104.969 128.105 103.685 128.234 102.413L129.733 87.4278L129.846 87.4334L149.854 88.3975L148.684 123.297C148.676 123.576 148.558 123.841 148.357 124.036C148.156 124.23 147.886 124.338 147.607 124.337Z" fill="#2F2E41"/>
<path d="M140.175 52.5768C143.425 52.5768 146.061 49.9417 146.061 46.6911C146.061 43.4405 143.425 40.8054 140.175 40.8054C136.924 40.8054 134.289 43.4405 134.289 46.6911C134.289 49.9417 136.924 52.5768 140.175 52.5768Z" fill="#A0616A"/>
<path d="M149.407 90.0115C149.387 90.0115 149.368 90.0111 149.348 90.0099L129.399 88.9374C129.235 88.9286 129.074 88.882 128.93 88.8014C128.786 88.7207 128.662 88.6081 128.569 88.4721C128.475 88.3362 128.414 88.1805 128.39 88.0172C128.366 87.8539 128.38 87.6873 128.431 87.5302L130.01 82.6275C131.7 77.371 131.989 71.7643 130.848 66.3619C130.549 64.9483 130.555 63.4871 130.866 62.076C131.177 60.665 131.785 59.3366 132.651 58.1796C133.502 57.0386 134.587 56.0925 135.834 55.4045C137.08 54.7166 138.459 54.3027 139.878 54.1905C139.976 54.1828 140.074 54.1759 140.173 54.1699C141.674 54.0811 143.176 54.3287 144.57 54.8944C145.964 55.4601 147.213 56.3298 148.228 57.4401C149.243 58.5503 149.997 59.873 150.436 61.3117C150.874 62.7505 150.986 64.269 150.763 65.7565L149.372 75.0958L150.481 88.8466C150.493 88.995 150.474 89.1442 150.426 89.285C150.377 89.4257 150.3 89.5548 150.199 89.6643C150.098 89.7737 149.975 89.8611 149.839 89.9208C149.703 89.9806 149.555 90.0115 149.407 90.0115Z" fill="#CCCCCC"/>
<path d="M124.858 91.2528C125.15 91.0553 125.395 90.7963 125.576 90.4939C125.757 90.1915 125.869 89.8532 125.905 89.5027C125.941 89.1523 125.899 88.7982 125.783 88.4655C125.668 88.1328 125.48 87.8295 125.235 87.577L129.076 79.9233L124.657 80.4466L121.687 87.6344C121.29 88.0752 121.068 88.6463 121.065 89.2394C121.061 89.8325 121.274 90.4065 121.665 90.8525C122.056 91.2985 122.597 91.5856 123.186 91.6594C123.774 91.7332 124.369 91.5885 124.858 91.2528Z" fill="#A0616A"/>
<path d="M151.227 92.5C150.973 92.2565 150.775 91.9602 150.647 91.6318C150.519 91.3035 150.465 90.9512 150.488 90.5996C150.512 90.2481 150.612 89.906 150.781 89.5973C150.951 89.2886 151.186 89.0208 151.471 88.813L148.963 80.625L153.232 81.8794L154.959 89.4625C155.277 89.9634 155.4 90.5635 155.305 91.1489C155.209 91.7343 154.903 92.2644 154.443 92.6389C153.983 93.0133 153.401 93.2059 152.809 93.1803C152.216 93.1547 151.654 92.9126 151.227 92.5Z" fill="#A0616A"/>
<path d="M150.813 88.2108C150.552 88.2116 150.299 88.1169 150.102 87.9444C149.906 87.7718 149.779 87.5334 149.746 87.274L147.75 72.2192L144.566 60.4548C144.432 59.9575 144.412 59.4361 144.508 58.9301C144.605 58.4241 144.815 57.9466 145.123 57.5337C145.431 57.1208 145.829 56.7833 146.287 56.5467C146.744 56.3101 147.25 56.1806 147.765 56.168C148.581 56.1507 149.376 56.4263 150.006 56.9449C150.636 57.4635 151.059 58.1907 151.2 58.9947L155.943 86.7792C155.969 86.9302 155.962 87.0849 155.923 87.233C155.885 87.3812 155.815 87.5194 155.719 87.6385C155.622 87.7576 155.502 87.8548 155.365 87.9237C155.228 87.9926 155.078 88.0316 154.925 88.038L150.86 88.2098C150.844 88.2103 150.829 88.2108 150.813 88.2108Z" fill="#CCCCCC"/>
<path d="M126.997 86.52C126.92 86.5199 126.843 86.5118 126.767 86.4956L122.788 85.6471C122.638 85.6151 122.497 85.5517 122.374 85.4609C122.25 85.3701 122.148 85.2541 122.073 85.1206C121.998 84.9871 121.952 84.8392 121.939 84.6866C121.925 84.5341 121.945 84.3805 121.995 84.2359L131.315 57.6348C131.588 56.8661 132.128 56.2205 132.835 55.8147C133.543 55.4088 134.373 55.2694 135.174 55.4217C135.68 55.5203 136.156 55.7325 136.568 56.0422C136.98 56.352 137.316 56.7512 137.55 57.2098C137.785 57.6683 137.912 58.1743 137.923 58.6893C137.934 59.2043 137.827 59.715 137.611 60.1828L132.501 71.2644L128.023 85.7594C127.956 85.9794 127.82 86.1721 127.635 86.3091C127.451 86.446 127.227 86.52 126.997 86.52Z" fill="#CCCCCC"/>
<path d="M133.929 43.3648C135.274 44.2918 136.87 44.7851 138.504 44.7786C137.921 45.1826 137.258 45.4555 136.559 45.5785C138.731 46.0444 140.976 46.057 143.153 45.6155C143.636 45.538 144.103 45.3776 144.533 45.1415C144.747 45.022 144.933 44.8588 145.08 44.6624C145.227 44.4661 145.331 44.2411 145.385 44.0021C145.529 43.1757 144.886 42.4249 144.216 41.9189C143.192 41.156 142.01 40.6304 140.758 40.3801C139.505 40.1298 138.213 40.161 136.973 40.4716C136.164 40.6807 135.354 41.0341 134.828 41.6838C134.303 42.3336 134.147 43.3353 134.648 44.0043L133.929 43.3648Z" fill="#2F2E41"/>
<path d="M103.216 0.0467224H2.08969C1.53562 0.0471983 1.00439 0.267508 0.6126 0.659286C0.220812 1.05106 0.000489887 1.58229 0 2.13636V100.704C0.000493055 101.258 0.220813 101.789 0.6126 102.181C1.00439 102.573 1.53562 102.793 2.08969 102.793H10.9563V102.197H2.08969C1.69388 102.196 1.3144 102.039 1.03452 101.759C0.754644 101.479 0.597205 101.1 0.596745 100.704V2.13636C0.597204 1.74055 0.754643 1.36108 1.03452 1.0812C1.3144 0.801314 1.69388 0.643879 2.08969 0.64342H103.216C103.613 0.643388 103.993 0.800591 104.273 1.08051C104.553 1.36042 104.711 1.74017 104.712 2.13636V100.704C104.712 100.995 104.626 101.28 104.465 101.523C104.322 101.737 104.127 101.912 103.899 102.031C103.688 102.14 103.454 102.197 103.216 102.197H94.3499V102.793H103.216C103.519 102.793 103.817 102.728 104.091 102.601C104.366 102.475 104.609 102.29 104.805 102.06C104.822 102.042 104.837 102.023 104.851 102.003C104.976 101.85 105.077 101.68 105.15 101.497C105.256 101.246 105.309 100.976 105.309 100.704V2.13636C105.308 1.58193 105.087 1.05042 104.695 0.658606C104.303 0.266789 103.771 0.0467106 103.216 0.0467224Z" fill="#3F3D56"/>
<path d="M105.009 8.42282H0.297852V9.02019H105.009V8.42282Z" fill="#3F3D56"/>
<path d="M5.37512 6.32006C6.36487 6.32006 7.16723 5.51771 7.16723 4.52795C7.16723 3.53819 6.36487 2.73584 5.37512 2.73584C4.38536 2.73584 3.58301 3.53819 3.58301 4.52795C3.58301 5.51771 4.38536 6.32006 5.37512 6.32006Z" fill="#3F3D56"/>
<path d="M10.5275 6.32006C11.5172 6.32006 12.3196 5.51771 12.3196 4.52795C12.3196 3.53819 11.5172 2.73584 10.5275 2.73584C9.53771 2.73584 8.73535 3.53819 8.73535 4.52795C8.73535 5.51771 9.53771 6.32006 10.5275 6.32006Z" fill="#3F3D56"/>
<path d="M15.6798 6.32006C16.6696 6.32006 17.4719 5.51771 17.4719 4.52795C17.4719 3.53819 16.6696 2.73584 15.6798 2.73584C14.6901 2.73584 13.8877 3.53819 13.8877 4.52795C13.8877 5.51771 14.6901 6.32006 15.6798 6.32006Z" fill="#3F3D56"/>
<path d="M77.9355 22.2505H27.3721C26.5459 22.2505 25.7535 21.9223 25.1693 21.338C24.5851 20.7538 24.2568 19.9614 24.2568 19.1352C24.2568 18.309 24.5851 17.5166 25.1693 16.9324C25.7535 16.3481 26.5459 16.0199 27.3721 16.0199H77.9355C78.7617 16.0199 79.5541 16.3481 80.1383 16.9324C80.7226 17.5166 81.0508 18.309 81.0508 19.1352C81.0508 19.9614 80.7226 20.7538 80.1383 21.338C79.5541 21.9223 78.7617 22.2505 77.9355 22.2505ZM27.3721 16.4992C26.673 16.4992 26.0025 16.7769 25.5082 17.2713C25.0138 17.7656 24.7361 18.4361 24.7361 19.1352C24.7361 19.8343 25.0138 20.5048 25.5082 20.9991C26.0025 21.4935 26.673 21.7712 27.3721 21.7712H77.9355C78.6346 21.7712 79.3051 21.4935 79.7994 20.9991C80.2938 20.5048 80.5715 19.8343 80.5715 19.1352C80.5715 18.4361 80.2938 17.7656 79.7994 17.2713C79.3051 16.7769 78.6346 16.4992 77.9355 16.4992H27.3721Z" fill="#3F3D56"/>
<path d="M90.7559 65.7672H14.5514C13.4713 65.7659 12.4358 65.3363 11.6721 64.5726C10.9084 63.8089 10.4788 62.7734 10.4775 61.6933V37.2504C10.4788 36.1703 10.9084 35.1348 11.6721 34.3711C12.4358 33.6074 13.4713 33.1778 14.5514 33.1765H90.7559C91.836 33.1778 92.8715 33.6074 93.6352 34.3711C94.3989 35.1348 94.8285 36.1703 94.8298 37.2504V61.6933C94.8285 62.7734 94.3989 63.8089 93.6352 64.5726C92.8715 65.3363 91.836 65.7659 90.7559 65.7672ZM14.5514 33.6558C13.5984 33.6569 12.6847 34.036 12.0108 34.7098C11.337 35.3837 10.9579 36.2974 10.9568 37.2504V61.6933C10.9579 62.6463 11.337 63.56 12.0108 64.2339C12.6847 64.9078 13.5984 65.2868 14.5514 65.2879H90.7559C91.7089 65.2868 92.6226 64.9078 93.2965 64.2339C93.9703 63.56 94.3494 62.6463 94.3505 61.6933V37.2504C94.3494 36.2974 93.9703 35.3837 93.2965 34.7098C92.6226 34.036 91.7089 33.6569 90.7559 33.6558H14.5514Z" fill="#3F3D56"/>
<path d="M62.6477 48.1539H36.048C35.5395 48.1539 35.0519 47.9519 34.6924 47.5924C34.3328 47.2328 34.1309 46.7452 34.1309 46.2368C34.1309 45.7283 34.3328 45.2407 34.6924 44.8812C35.0519 44.5216 35.5395 44.3197 36.048 44.3197H62.6477C63.1561 44.3197 63.6437 44.5216 64.0032 44.8812C64.3628 45.2407 64.5648 45.7283 64.5648 46.2368C64.5648 46.7452 64.3628 47.2328 64.0032 47.5924C63.6437 47.9519 63.1561 48.1539 62.6477 48.1539Z" fill="#00CFFF"/>
<path d="M87.3303 54.6241H36.048C35.5395 54.6241 35.0519 54.4221 34.6924 54.0626C34.3328 53.703 34.1309 53.2154 34.1309 52.707C34.1309 52.1985 34.3328 51.7109 34.6924 51.3514C35.0519 50.9919 35.5395 50.7899 36.048 50.7899H87.3303C87.8387 50.7899 88.3263 50.9919 88.6858 51.3514C89.0454 51.7109 89.2474 52.1985 89.2474 52.707C89.2474 53.2154 89.0454 53.703 88.6858 54.0626C88.3263 54.4221 87.8387 54.6241 87.3303 54.6241Z" fill="#00CFFF"/>
<path d="M23.2497 56.661C27.2201 56.661 30.4388 53.4423 30.4388 49.4719C30.4388 45.5014 27.2201 42.2827 23.2497 42.2827C19.2792 42.2827 16.0605 45.5014 16.0605 49.4719C16.0605 53.4423 19.2792 56.661 23.2497 56.661Z" fill="#00CFFF"/>
<path d="M87.3261 62.4122H80.6163C80.1079 62.4122 79.6202 62.2102 79.2607 61.8507C78.9012 61.4912 78.6992 61.0036 78.6992 60.4951C78.6992 59.9867 78.9012 59.4991 79.2607 59.1395C79.6202 58.78 80.1079 58.578 80.6163 58.578H87.3261C87.8346 58.578 88.3222 58.78 88.6817 59.1395C89.0413 59.4991 89.2432 59.9867 89.2432 60.4951C89.2432 61.0036 89.0413 61.4912 88.6817 61.8507C88.3222 62.2102 87.8346 62.4122 87.3261 62.4122Z" fill="white"/>
<path d="M87.3261 69.062H80.6163C80.1079 69.062 79.6202 68.8601 79.2607 68.5005C78.9012 68.141 78.6992 67.6534 78.6992 67.1449C78.6992 66.6365 78.9012 66.1489 79.2607 65.7893C79.6202 65.4298 80.1079 65.2278 80.6163 65.2278H87.3261C87.8346 65.2278 88.3222 65.4298 88.6817 65.7893C89.0413 66.1489 89.2432 66.6365 89.2432 67.1449C89.2432 67.6534 89.0413 68.141 88.6817 68.5005C88.3222 68.8601 87.8346 69.062 87.3261 69.062Z" fill="#CCCCCC"/>
<path d="M90.7559 77.2697H14.5514C13.4714 77.2712 12.4361 77.7009 11.6724 78.4646C10.9088 79.2283 10.4791 80.2636 10.4775 81.3435V105.787C10.4791 106.866 10.9088 107.902 11.6724 108.665C12.4361 109.429 13.4714 109.859 14.5514 109.86H90.7559C91.836 109.859 92.8716 109.43 93.6353 108.666C94.3991 107.902 94.8286 106.867 94.8298 105.787V81.3435C94.8286 80.2634 94.3991 79.2279 93.6353 78.4642C92.8716 77.7004 91.836 77.2708 90.7559 77.2697ZM94.3505 105.787C94.3497 106.74 93.9708 107.653 93.2968 108.327C92.6229 109.001 91.709 109.38 90.7559 109.381H14.5514C13.5984 109.38 12.6848 109.001 12.0109 108.327C11.3371 107.653 10.958 106.739 10.9568 105.787V81.3435C10.958 80.3906 11.3371 79.4769 12.0109 78.8031C12.6848 78.1292 13.5984 77.7501 14.5514 77.749H90.7559C91.709 77.7497 92.6229 78.1287 93.2968 78.8027C93.9708 79.4766 94.3497 80.3904 94.3505 81.3435V105.787Z" fill="#3F3D56"/>
<path d="M62.6477 92.247H36.048C35.5395 92.247 35.0519 92.0451 34.6924 91.6855C34.3328 91.326 34.1309 90.8384 34.1309 90.3299C34.1309 89.8215 34.3328 89.3339 34.6924 88.9743C35.0519 88.6148 35.5395 88.4128 36.048 88.4128H62.6477C63.1561 88.4128 63.6437 88.6148 64.0032 88.9743C64.3628 89.3339 64.5648 89.8215 64.5648 90.3299C64.5648 90.8384 64.3628 91.326 64.0032 91.6855C63.6437 92.0451 63.1561 92.247 62.6477 92.247Z" fill="#00CFFF"/>
<path d="M87.3303 98.7172H36.048C35.5395 98.7172 35.0519 98.5152 34.6924 98.1557C34.3328 97.7962 34.1309 97.3086 34.1309 96.8001C34.1309 96.2917 34.3328 95.8041 34.6924 95.4445C35.0519 95.085 35.5395 94.883 36.048 94.883H87.3303C87.8387 94.883 88.3263 95.085 88.6858 95.4445C89.0454 95.8041 89.2474 96.2917 89.2474 96.8001C89.2474 97.3086 89.0454 97.7962 88.6858 98.1557C88.3263 98.5152 87.8387 98.7172 87.3303 98.7172Z" fill="#00CFFF"/>
<path d="M23.2497 100.754C27.2201 100.754 30.4388 97.5355 30.4388 93.5651C30.4388 89.5946 27.2201 86.3759 23.2497 86.3759C19.2792 86.3759 16.0605 89.5946 16.0605 93.5651C16.0605 97.5355 19.2792 100.754 23.2497 100.754Z" fill="#00CFFF"/>
<path d="M87.3261 106.505H80.6163C80.1079 106.505 79.6202 106.303 79.2607 105.944C78.9012 105.584 78.6992 105.097 78.6992 104.588C78.6992 104.08 78.9012 103.592 79.2607 103.233C79.6202 102.873 80.1079 102.671 80.6163 102.671H87.3261C87.8346 102.671 88.3222 102.873 88.6817 103.233C89.0413 103.592 89.2432 104.08 89.2432 104.588C89.2432 105.097 89.0413 105.584 88.6817 105.944C88.3222 106.303 87.8346 106.505 87.3261 106.505Z" fill="#CCCCCC"/>
<path d="M156.788 133.345H123.239C123.175 133.345 123.114 133.32 123.069 133.275C123.024 133.23 122.999 133.169 122.999 133.105C122.999 133.042 123.024 132.981 123.069 132.936C123.114 132.891 123.175 132.866 123.239 132.866H156.788C156.851 132.866 156.912 132.891 156.957 132.936C157.002 132.981 157.027 133.042 157.027 133.105C157.027 133.169 157.002 133.23 156.957 133.275C156.912 133.32 156.851 133.345 156.788 133.345Z" fill="#3F3D56"/>
</g>
<defs>
<clipPath id="clip0_259_2166">
<rect width="157.027" height="133.298" fill="white" transform="translate(0 0.0467224)"/>
</clipPath>
</defs>
</svg>
