<svg width="133" height="103" viewBox="0 0 133 103" fill="none" xmlns="http://www.w3.org/2000/svg">
<g clip-path="url(#clip0_259_2101)">
<path d="M90.3263 102.247C90.1971 102.357 90.0637 102.465 89.9289 102.571H73.568C73.4741 102.465 73.3802 102.357 73.2877 102.247C72.5322 101.341 71.8672 100.363 71.3021 99.3278C69.9589 96.908 69.4961 93.7357 69.4961 90.5049C69.4961 90.3076 69.4975 90.1103 69.5015 89.9129C69.5166 89.0066 69.5669 88.0988 69.6418 87.2061C69.6554 87.0509 69.669 86.8971 69.6839 86.7434C69.8051 85.4627 69.9752 84.2161 70.1684 83.0512C70.1929 82.9028 70.2174 82.7559 70.2433 82.6102C70.6371 80.2966 71.1652 78.0077 71.8247 75.7553C71.8247 75.7553 71.8465 75.7608 71.8886 75.7716C72.0097 75.8057 72.2996 75.886 72.7256 76.0125C73.8987 76.3609 76.102 77.0632 78.6429 78.107C78.7817 78.1628 78.9218 78.2213 79.0634 78.2812C81.213 79.1674 83.2936 80.2123 85.2882 81.4072C85.412 81.4821 85.5345 81.5583 85.657 81.6345V81.6454L85.3889 90.3239L87.7841 83.0988C88.2727 83.4704 88.7395 83.8555 89.1845 84.2542C89.307 84.3631 89.4295 84.4747 89.5479 84.5904C90.5589 85.5171 91.4218 86.5934 92.1064 87.7817C95.6897 94.242 94.1859 98.9916 90.3263 102.247Z" fill="#F2F2F2"/>
<path d="M88.0198 102.571H87.5843C87.5815 102.463 87.5775 102.356 87.5706 102.247C87.3951 98.9821 85.9948 95.377 84.0881 91.8972C84.02 91.7706 83.9507 91.6413 83.8772 91.5148C82.9517 89.8599 81.9201 88.2404 80.8546 86.7012C80.7729 86.5814 80.6885 86.4603 80.6041 86.3405C79.186 84.3169 77.7217 82.4442 76.3989 80.8452C76.3063 80.7308 76.2111 80.6192 76.1172 80.509C74.1561 78.1574 72.538 76.444 71.8888 75.7717C71.7922 75.6723 71.7174 75.5961 71.6657 75.543C71.618 75.4913 71.5894 75.4641 71.584 75.4586L71.7364 75.3062L71.7377 75.3021L71.8929 75.1497C71.8984 75.1565 71.9922 75.2463 72.1582 75.4192C72.2985 75.5621 72.4903 75.7621 72.7258 76.0125C73.5478 76.8835 74.9073 78.3656 76.4806 80.245C76.5717 80.3539 76.6656 80.4668 76.7595 80.5798C77.8333 81.8767 78.9969 83.3465 80.1496 84.9266C80.4394 85.3239 80.7207 85.7182 80.9934 86.1092C81.0791 86.229 81.1635 86.3487 81.2451 86.4685C82.3978 88.1315 83.4045 89.731 84.265 91.2671L84.48 91.6522C86.6738 95.6533 87.8551 99.1971 88.0076 102.247C88.0129 102.356 88.0171 102.463 88.0198 102.571Z" fill="white"/>
<path d="M78.8821 77.7885C78.8046 77.896 78.7256 78.0022 78.6427 78.107C78.0186 78.9113 77.2915 79.6301 76.4801 80.245C76.3617 80.3321 76.2406 80.4219 76.1168 80.509C75.779 80.7447 75.4292 80.9627 75.0688 81.1622C73.5842 81.989 71.9376 82.4831 70.243 82.6102C70.1886 82.6157 70.1328 82.6198 70.0784 82.6225C70.0539 82.7681 70.0307 82.9137 70.0049 83.0621C70.0593 83.0593 70.1137 83.0566 70.1682 83.0512C71.9632 82.9343 73.7096 82.4197 75.2812 81.5446C75.6657 81.3314 76.0387 81.0979 76.3985 80.8451C76.5209 80.7594 76.6407 80.6696 76.7591 80.5797C77.6269 79.9206 78.4019 79.1474 79.0632 78.2812C79.1421 78.1764 79.2196 78.0702 79.2959 77.9641C79.1543 77.9042 79.0169 77.8457 78.8821 77.7885Z" fill="white"/>
<path d="M85.4372 81.0997C85.3896 81.2031 85.3392 81.3052 85.2888 81.4072C84.3185 83.3409 82.8319 84.9682 80.9938 86.1092C80.8658 86.1895 80.7366 86.2671 80.6046 86.3406C80.5651 86.3637 80.523 86.3882 80.4835 86.41C78.8402 87.3218 77.0029 87.8278 75.1245 87.8858C73.2461 87.9438 71.381 87.5521 69.6846 86.7434C69.6437 86.7243 69.6043 86.7053 69.5648 86.6862C69.5498 86.8414 69.5362 86.9965 69.5254 87.153C69.5635 87.1707 69.6029 87.1898 69.6424 87.2061C71.3875 88.0106 73.2976 88.3923 75.2179 88.3205C77.1381 88.2486 79.0144 87.7251 80.6944 86.7924C80.7488 86.7624 80.8019 86.7325 80.855 86.7012C80.987 86.625 81.1176 86.5474 81.2456 86.4685C83.1294 85.2942 84.6553 83.6261 85.6576 81.6454C85.7107 81.5433 85.7611 81.4399 85.8101 81.3351C85.6863 81.2562 85.5624 81.1772 85.4372 81.0997Z" fill="white"/>
<path d="M89.2568 83.9454C89.2336 84.0488 89.2105 84.1522 89.1847 84.2543C88.4846 87.1272 86.7281 89.631 84.265 91.2671C84.1384 91.3528 84.0077 91.4345 83.8771 91.5148C83.7369 91.5992 83.5967 91.6835 83.4525 91.7625C81.2358 92.9894 78.6836 93.472 76.172 93.139C73.6603 92.806 71.3221 91.6752 69.5017 89.913C69.4704 89.8844 69.4405 89.8545 69.4105 89.8245C69.4105 90.0273 69.4092 90.2274 69.4119 90.4288C69.4391 90.4546 69.4676 90.4805 69.4962 90.505C71.3917 92.2222 73.7767 93.3036 76.3174 93.5976C78.8581 93.8917 81.4272 93.3837 83.6648 92.1449C83.809 92.066 83.9506 91.9843 84.088 91.8972C84.2214 91.8183 84.3507 91.7366 84.4799 91.6522C86.9781 89.9994 88.7818 87.4862 89.548 84.5905C89.5738 84.4925 89.5997 84.3945 89.6228 84.2951C89.5045 84.1754 89.3806 84.0624 89.2568 83.9454Z" fill="white"/>
<path d="M77.8466 61.7842H0.344727V3.63751H77.8466V61.7842Z" fill="white"/>
<path d="M19.125 15.7731C20.8288 15.7731 22.21 14.3919 22.21 12.6881C22.21 10.9843 20.8288 9.60315 19.125 9.60315C17.4212 9.60315 16.04 10.9843 16.04 12.6881C16.04 14.3919 17.4212 15.7731 19.125 15.7731Z" fill="#E6E6E6"/>
<path d="M26.2496 10.6316C26.1134 10.6318 25.9828 10.6861 25.8866 10.7825C25.7904 10.8789 25.7363 11.0095 25.7363 11.1458C25.7363 11.282 25.7904 11.4126 25.8866 11.509C25.9828 11.6054 26.1134 11.6597 26.2496 11.6599H63.7894C63.9256 11.6597 64.0561 11.6054 64.1523 11.509C64.2486 11.4126 64.3026 11.282 64.3026 11.1458C64.3026 11.0095 64.2486 10.8789 64.1523 10.7825C64.0561 10.6861 63.9256 10.6318 63.7894 10.6316H26.2496Z" fill="#E6E6E6"/>
<path d="M26.2496 13.7166C26.1133 13.7163 25.9824 13.7702 25.8857 13.8664C25.7891 13.9626 25.7347 14.0933 25.7344 14.2296C25.7341 14.366 25.788 14.4969 25.8842 14.5935C25.9804 14.6901 26.1111 14.7446 26.2475 14.7449H49.9805C50.0481 14.745 50.1151 14.7318 50.1775 14.706C50.24 14.6802 50.2968 14.6424 50.3447 14.5946C50.3925 14.5469 50.4305 14.4901 50.4564 14.4277C50.4823 14.3652 50.4956 14.2983 50.4956 14.2307C50.4956 14.1631 50.4823 14.0962 50.4564 14.0337C50.4305 13.9713 50.3925 13.9146 50.3447 13.8668C50.2968 13.8191 50.24 13.7812 50.1775 13.7554C50.1151 13.7296 50.0481 13.7164 49.9805 13.7166H26.2496Z" fill="#E6E6E6"/>
<path d="M77.8466 61.7842H0.344727V3.63751H77.8466V61.7842ZM1.21217 60.9167H76.9792V4.50496H1.21217V60.9167Z" fill="#E6E6E6"/>
<path d="M4.67676 21.3699V55.9545H73.515V21.3699H4.67676ZM73.1841 29.9333H56.3882V21.7008H73.1841V29.9333ZM39.2614 29.9333V21.7008H56.0572V29.9333H39.2614ZM56.0572 30.2642V38.4967H39.2614V30.2642H56.0572ZM38.9304 29.9333H22.1345V21.7008H38.9304V29.9333ZM38.9304 30.2642V38.4967H22.1345V30.2642H38.9304ZM21.8036 38.4967H5.00771V30.2642H21.8036V38.4967ZM21.8036 38.8277V47.0601H5.00771V38.8277H21.8036ZM22.1345 38.8277H38.9304V47.0601H22.1345V38.8277ZM38.9304 47.3911V55.6235H22.1345V47.3911H38.9304ZM39.2614 47.3911H56.0572V55.6235H39.2614V47.3911ZM39.2614 47.0601V38.8277H56.0572V47.0601H39.2614ZM56.3882 38.8277H73.1841V47.0601H56.3882V38.8277ZM56.3882 38.4967V30.2642H73.1841V38.4967H56.3882ZM21.8036 21.7008V29.9333H5.00771V21.7008H21.8036ZM5.00771 47.3911H21.8036V55.6235H5.00771V47.3911ZM56.3882 55.6235V47.3911H73.1841V55.6235H56.3882Z" fill="#E4E4E4"/>
<path d="M32.9356 30.6741L26.0861 30.519C25.401 27.865 25.7094 25.338 26.2562 23.0093L33.1056 23.1644C32.4128 25.6127 32.3543 28.197 32.9356 30.6741Z" fill="#00CFFF"/>
<path d="M27.4287 24.6691L27.4324 24.4084L30.981 24.5352L30.9772 24.7958L27.4287 24.6691Z" fill="white"/>
<path d="M27.4141 25.7116L27.4177 25.4509L30.9662 25.5779L30.9625 25.8385L27.4141 25.7116Z" fill="white"/>
<path d="M27.3994 26.7541L27.4032 26.4935L30.9517 26.6204L30.9481 26.881L27.3994 26.7541Z" fill="white"/>
<path d="M27.3838 27.7966L27.3874 27.536L30.9361 27.6629L30.9323 27.9236L27.3838 27.7966Z" fill="white"/>
<path d="M27.3691 28.8391L27.3728 28.5784L30.9214 28.7054L30.9176 28.966L27.3691 28.8391Z" fill="white"/>
<path d="M18.0421 49.8694L11.1925 49.7144C10.5074 47.0603 10.8159 44.5333 11.3626 42.2047L18.2121 42.3597C17.5193 44.808 17.4608 47.3923 18.0421 49.8694Z" fill="#F0F0F0"/>
<path d="M12.5361 43.8644L12.5398 43.6038L16.0884 43.7305L16.0846 43.9911L12.5361 43.8644Z" fill="white"/>
<path d="M12.5215 44.9069L12.5251 44.6463L16.0736 44.7732L16.07 45.0338L12.5215 44.9069Z" fill="white"/>
<path d="M12.5068 45.9493L12.5106 45.6887L16.0591 45.8156L16.0555 46.0763L12.5068 45.9493Z" fill="white"/>
<path d="M12.4912 46.9919L12.4949 46.7313L16.0435 46.8582L16.0397 47.1188L12.4912 46.9919Z" fill="white"/>
<path d="M12.4766 48.0344L12.4802 47.7737L16.0288 47.9007L16.025 48.1613L12.4766 48.0344Z" fill="white"/>
<path d="M53.7852 41.0991L46.9357 40.944C46.2506 38.29 46.559 35.763 47.1058 33.4343L53.9552 33.5894C53.2624 36.0377 53.2039 38.622 53.7852 41.0991Z" fill="#F0F0F0"/>
<path d="M48.2793 35.0941L48.2829 34.8335L51.8316 34.9602L51.8278 35.2209L48.2793 35.0941Z" fill="white"/>
<path d="M48.2646 36.1366L48.2683 35.876L51.8168 36.0029L51.8131 36.2635L48.2646 36.1366Z" fill="white"/>
<path d="M48.249 37.1792L48.2528 36.9186L51.8013 37.0455L51.7977 37.3061L48.249 37.1792Z" fill="white"/>
<path d="M48.2344 38.2216L48.238 37.961L51.7867 38.0879L51.7829 38.3485L48.2344 38.2216Z" fill="white"/>
<path d="M48.2197 39.264L48.2234 39.0034L51.772 39.1303L51.7682 39.391L48.2197 39.264Z" fill="white"/>
<path d="M50.8067 39.4444L43.9572 39.2893C43.2721 36.6353 43.5805 34.1083 44.1272 31.7796L50.9767 31.9347C50.2839 34.383 50.2254 36.9673 50.8067 39.4444Z" fill="#00CFFF"/>
<path d="M45.3008 33.4393L45.3044 33.1787L48.8531 33.3055L48.8493 33.5661L45.3008 33.4393Z" fill="white"/>
<path d="M45.2861 34.4818L45.2898 34.2212L48.8383 34.3481L48.8346 34.6087L45.2861 34.4818Z" fill="white"/>
<path d="M45.2705 35.5244L45.2743 35.2637L48.8228 35.3907L48.8192 35.6513L45.2705 35.5244Z" fill="white"/>
<path d="M45.2559 36.5669L45.2595 36.3063L48.8081 36.4332L48.8043 36.6938L45.2559 36.5669Z" fill="white"/>
<path d="M45.2412 37.6093L45.2449 37.3487L48.7935 37.4756L48.7897 37.7362L45.2412 37.6093Z" fill="white"/>
<path d="M76.0694 54.5607L69.2199 54.4056C68.5348 51.7516 68.8432 49.2245 69.3899 46.8959L76.2394 47.051C75.5466 49.4992 75.4881 52.0835 76.0694 54.5607Z" fill="#00CFFF"/>
<path d="M70.5635 48.5554L70.5673 48.2948L74.1158 48.4217L74.112 48.6823L70.5635 48.5554Z" fill="white"/>
<path d="M70.5488 49.598L70.5525 49.3374L74.1011 49.4643L74.0973 49.7249L70.5488 49.598Z" fill="white"/>
<path d="M70.5332 50.6406L70.537 50.38L74.0855 50.5068L74.0818 50.7674L70.5332 50.6406Z" fill="white"/>
<path d="M70.5186 51.6831L70.5224 51.4225L74.0708 51.5492L74.067 51.8099L70.5186 51.6831Z" fill="white"/>
<path d="M70.5039 52.7256L70.5075 52.465L74.0562 52.5919L74.0524 52.8526L70.5039 52.7256Z" fill="white"/>
<path d="M68.6788 31.998L61.8293 31.8429C61.1441 29.1889 61.4526 26.6618 61.9993 24.3332L68.8488 24.4883C68.156 26.9366 68.0975 29.5208 68.6788 31.998Z" fill="#F0F0F0"/>
<path d="M63.1729 25.9929L63.1765 25.7322L66.7251 25.859L66.7213 26.1196L63.1729 25.9929Z" fill="white"/>
<path d="M63.1572 27.0353L63.1609 26.7747L66.7093 26.9016L66.7057 27.1623L63.1572 27.0353Z" fill="white"/>
<path d="M63.1426 28.0779L63.1464 27.8173L66.6949 27.9442L66.6912 28.2049L63.1426 28.0779Z" fill="white"/>
<path d="M63.127 29.1204L63.1306 28.8598L66.6792 28.9867L66.6754 29.2473L63.127 29.1204Z" fill="white"/>
<path d="M63.1123 30.1628L63.1159 29.9022L66.6646 30.0291L66.6608 30.2898L63.1123 30.1628Z" fill="white"/>
<path d="M75.6997 49.0263C75.9359 48.9681 76.1565 48.8589 76.3459 48.7062C76.5353 48.5536 76.689 48.3613 76.7961 48.1428C76.9031 47.9244 76.961 47.6851 76.9656 47.4419C76.9702 47.1987 76.9214 46.9574 76.8226 46.7351L81.1414 42.6959L78.1537 41.9779L74.5105 45.9236C74.148 46.1143 73.868 46.4313 73.7236 46.8145C73.5792 47.1978 73.5804 47.6207 73.727 48.0032C73.8736 48.3856 74.1554 48.701 74.519 48.8895C74.8825 49.0781 75.3027 49.1268 75.6997 49.0263Z" fill="#FFB6B6"/>
<path d="M77.9311 45.7727L75.917 42.9329L83.4823 35.1081L85.2389 22.7742C85.3258 22.1645 85.5458 21.5815 85.8833 21.0664C86.2208 20.5513 86.6676 20.1169 87.1919 19.7939C87.7162 19.4709 88.3052 19.2673 88.9171 19.1975C89.5289 19.1278 90.1486 19.1936 90.7322 19.3902C91.7858 19.7466 92.655 20.5065 93.1491 21.503C93.6432 22.4995 93.7218 23.6513 93.3677 24.7057L88.8858 38.0031L77.9311 45.7727Z" fill="#E4E4E4"/>
<path d="M92.1355 98.3262L89.8996 98.326L88.8359 89.7019L92.136 89.7021L92.1355 98.3262Z" fill="#FFB6B6"/>
<path d="M93.3387 102.572H91.7522L91.469 101.074L90.7437 102.572H86.5358C86.3341 102.572 86.1377 102.507 85.9752 102.388C85.8127 102.268 85.6927 102.1 85.6327 101.907C85.5727 101.715 85.5758 101.508 85.6415 101.317C85.7073 101.127 85.8323 100.962 85.9983 100.847L89.3586 98.5266V97.0123L92.8931 97.2232L93.3387 102.572Z" fill="#2F2E41"/>
<path d="M105.93 96.0509L103.966 97.1195L98.9092 90.0527L101.808 88.4755L105.93 96.0509Z" fill="#FFB6B6"/>
<path d="M109.016 99.205L107.623 99.9634L106.658 98.783L106.737 100.445L103.041 102.457C102.863 102.553 102.66 102.59 102.46 102.563C102.26 102.536 102.075 102.445 101.93 102.305C101.785 102.164 101.689 101.981 101.656 101.782C101.622 101.583 101.653 101.379 101.744 101.199L103.587 97.5544L102.863 96.2242L106.068 94.7202L109.016 99.205Z" fill="#2F2E41"/>
<path d="M93.0778 95.2552H88.4571V78.8011L85.5965 68.0739C83.5434 60.4025 82.9978 52.4056 83.9899 44.5264L83.9939 44.4941L84.0187 44.4733C84.0921 44.4116 91.4136 38.3578 96.0448 42.9888C99.1663 46.1104 96.2331 57.335 96.069 57.9511V77.301L93.0778 95.2552Z" fill="#2F2E41"/>
<path d="M82.583 47.5152L84.0723 32.6223C83.8788 32.2162 81.0937 29.6437 84.0058 25.1208L87.1512 17.7377L93.0418 17.6461L93.0665 17.6709C94.4523 19.0537 95.4744 20.7579 96.0417 22.6316C96.609 24.5052 96.7038 26.4901 96.3178 28.4094L94.5821 37.0882L96.086 43.1039L82.583 47.5152Z" fill="#E4E4E4"/>
<path d="M90.3213 78.886L99.8137 92.2378L103.455 89.6489L95.5272 73.3575L90.3213 78.886Z" fill="#2F2E41"/>
<path d="M89.5457 16.2368C92.5497 16.2368 94.9849 13.8016 94.9849 10.7976C94.9849 7.79362 92.5497 5.3584 89.5457 5.3584C86.5417 5.3584 84.1064 7.79362 84.1064 10.7976C84.1064 13.8016 86.5417 16.2368 89.5457 16.2368Z" fill="#FFB6B6"/>
<path opacity="0.1" d="M88.209 30.4711L89.6983 39.4068L88.209 46.8533H85.2305L86.5844 39.4068L88.209 30.4711Z" fill="black"/>
<path d="M89.6299 54.5256C89.8109 54.363 89.9541 54.1628 90.0493 53.939C90.1445 53.7151 90.1896 53.4731 90.1812 53.23C90.1728 52.9869 90.1112 52.7486 90.0007 52.5318C89.8902 52.3151 89.7336 52.1252 89.5418 51.9756L91.4501 46.3787L88.4761 47.152L87.1199 52.3483C86.8899 52.6872 86.7921 53.0986 86.8452 53.5048C86.8982 53.9109 87.0984 54.2834 87.4078 54.5518C87.7172 54.8202 88.1143 54.9657 88.5238 54.9609C88.9334 54.9561 89.3269 54.8012 89.6299 54.5256Z" fill="#FFB6B6"/>
<path d="M90.0667 50.6047L86.9527 49.0477L89.9427 38.5824L85.6852 26.8741C85.4747 26.2954 85.3943 25.6774 85.4495 25.0641C85.5048 24.4508 85.6944 23.8571 86.0049 23.3253C86.3154 22.7935 86.7391 22.3366 87.246 21.9869C87.753 21.6373 88.3307 21.4036 88.9381 21.3023C90.0354 21.1207 91.16 21.3817 92.0651 22.0282C92.9702 22.6747 93.5819 23.6539 93.7659 24.7508L96.0729 38.5923L90.0667 50.6047Z" fill="#E4E4E4"/>
<path d="M132.924 102.374C132.924 102.4 132.919 102.425 132.909 102.449C132.899 102.473 132.885 102.495 132.867 102.513C132.848 102.532 132.827 102.546 132.803 102.556C132.779 102.566 132.753 102.571 132.727 102.571H25.6159C25.5636 102.571 25.5135 102.55 25.4766 102.513C25.4397 102.476 25.4189 102.426 25.4189 102.374C25.4189 102.322 25.4397 102.272 25.4766 102.235C25.5135 102.198 25.5636 102.177 25.6159 102.177H132.727C132.779 102.177 132.829 102.198 132.866 102.235C132.903 102.272 132.924 102.322 132.924 102.374Z" fill="#CACACA"/>
<path d="M110.7 10.5317C110.014 11.6457 108.56 12.1368 107.271 11.9137C105.982 11.6907 104.862 10.8585 104.034 9.845C103.207 8.83147 102.634 7.63845 102.071 6.4575C101.508 5.27654 100.938 4.08261 100.115 3.06573C99.2914 2.04883 98.177 1.2103 96.8896 0.97675C96.189 0.849644 95.3954 0.933559 94.8842 1.42923C94.5317 1.80076 94.3393 2.29585 94.3484 2.80787C94.1256 2.72943 93.8869 2.70699 93.6533 2.74255C93.4198 2.77811 93.1986 2.87057 93.0093 3.01178C92.8199 3.15298 92.6682 3.33861 92.5675 3.55228C92.4668 3.76596 92.4202 4.00113 92.4318 4.23706C92.4127 4.23669 92.3939 4.23543 92.3748 4.23543C89.976 2.87163 86.3351 3.66389 86.3351 5.15317C85.0189 5.15317 83.4102 6.45304 83.4102 8.4269C86.132 8.4269 87.7338 11.9143 86.1448 14.4148C85.7346 15.0526 85.2824 15.6624 84.7912 16.2401H88.1949C88.4804 15.8304 88.6527 15.3525 88.6943 14.8548C88.8193 15.307 88.894 15.7716 88.9171 16.2401C88.9171 16.2401 98.2144 17.4381 95.8147 8.17098C95.9735 8.16305 96.128 8.11625 96.2645 8.03467C96.6268 7.81628 96.8241 7.3544 96.8587 6.88572C96.9484 6.9097 97.0378 6.93362 97.127 6.95748C97.7666 7.13016 98.4311 7.3539 98.8701 7.85013C99.6122 8.68879 99.4561 9.96172 99.7255 11.0486C100.05 12.3594 101.022 13.4196 102.102 14.2305C103.263 15.1018 104.618 15.7637 106.062 15.9011C107.507 16.0385 109.044 15.5993 110.044 14.5488C111.045 13.4983 111.394 11.8061 110.7 10.5317Z" fill="#2F2E41"/>
</g>
<defs>
<clipPath id="clip0_259_2101">
<rect width="132.579" height="101.648" fill="white" transform="translate(0.344727 0.923828)"/>
</clipPath>
</defs>
</svg>
