<svg width="52" height="52" viewBox="0 0 52 52" fill="none" xmlns="http://www.w3.org/2000/svg">
<circle cx="26.0833" cy="25.5833" r="25.5833" fill="white"/>
<path d="M15.4238 13.8577C15.4238 12.4441 15.9854 11.0885 16.9849 10.0889C17.9845 9.08937 19.3401 8.52783 20.7537 8.52783H26.0836V19.1876H20.7537C19.3401 19.1876 17.9845 18.626 16.9849 17.6265C15.9854 16.6269 15.4238 15.2713 15.4238 13.8577Z" stroke="black" stroke-width="2.13194" stroke-linecap="round" stroke-linejoin="round"/>
<path d="M26.083 8.52783H31.4129C32.1128 8.52783 32.8059 8.66569 33.4525 8.93354C34.0992 9.20139 34.6867 9.59399 35.1817 10.0889C35.6766 10.5838 36.0692 11.1714 36.337 11.818C36.6049 12.4647 36.7427 13.1578 36.7427 13.8577C36.7427 14.5576 36.6049 15.2507 36.337 15.8973C36.0692 16.544 35.6766 17.1316 35.1817 17.6265C34.6867 18.1214 34.0992 18.514 33.4525 18.7818C32.8059 19.0497 32.1128 19.1876 31.4129 19.1876H26.083V8.52783Z" stroke="black" stroke-width="2.13194" stroke-linecap="round" stroke-linejoin="round"/>
<path d="M26.083 24.5174C26.083 23.8174 26.2209 23.1244 26.4887 22.4777C26.7566 21.8311 27.1492 21.2435 27.6441 20.7486C28.139 20.2537 28.7266 19.8611 29.3732 19.5932C30.0199 19.3254 30.7129 19.1875 31.4129 19.1875C32.1128 19.1875 32.8059 19.3254 33.4525 19.5932C34.0992 19.8611 34.6867 20.2537 35.1817 20.7486C35.6766 21.2435 36.0692 21.8311 36.337 22.4777C36.6049 23.1244 36.7427 23.8174 36.7427 24.5174C36.7427 25.2173 36.6049 25.9104 36.337 26.557C36.0692 27.2037 35.6766 27.7912 35.1817 28.2861C34.6867 28.7811 34.0992 29.1737 33.4525 29.4415C32.8059 29.7094 32.1128 29.8472 31.4129 29.8472C30.7129 29.8472 30.0199 29.7094 29.3732 29.4415C28.7266 29.1737 28.139 28.7811 27.6441 28.2861C27.1492 27.7912 26.7566 27.2037 26.4887 26.557C26.2209 25.9104 26.083 25.2173 26.083 24.5174V24.5174Z" stroke="black" stroke-width="2.13194" stroke-linecap="round" stroke-linejoin="round"/>
<path d="M15.4238 35.177C15.4238 33.7635 15.9854 32.4078 16.9849 31.4082C17.9845 30.4087 19.3401 29.8472 20.7537 29.8472H26.0836V35.177C26.0836 36.5906 25.522 37.9463 24.5225 38.9458C23.5229 39.9454 22.1673 40.5069 20.7537 40.5069C19.3401 40.5069 17.9845 39.9454 16.9849 38.9458C15.9854 37.9463 15.4238 36.5906 15.4238 35.177Z" stroke="black" stroke-width="2.13194" stroke-linecap="round" stroke-linejoin="round"/>
<path d="M15.4238 24.5174C15.4238 23.1038 15.9854 21.7481 16.9849 20.7486C17.9845 19.749 19.3401 19.1875 20.7537 19.1875H26.0836V29.8472H20.7537C19.3401 29.8472 17.9845 29.2857 16.9849 28.2861C15.9854 27.2866 15.4238 25.9309 15.4238 24.5174Z" stroke="black" stroke-width="2.13194" stroke-linecap="round" stroke-linejoin="round"/>
</svg>
