<svg width="139" height="111" viewBox="0 0 139 111" fill="none" xmlns="http://www.w3.org/2000/svg">
<g clip-path="url(#clip0_259_2062)">
<path d="M114.578 54.3577L120.412 48.0113L115.637 44.2437L113.278 49.4586L102.577 52.9939C102.216 52.7866 101.803 52.6886 101.387 52.712C100.972 52.7354 100.573 52.8792 100.237 53.1258C99.9024 53.3724 99.6463 53.7112 99.5004 54.1008C99.3545 54.4904 99.3251 54.914 99.4159 55.3201C99.5066 55.7261 99.7135 56.0969 100.011 56.3874C100.309 56.6779 100.685 56.8754 101.093 56.9559C101.501 57.0364 101.924 56.9964 102.31 56.8408C102.696 56.6852 103.028 56.4206 103.266 56.0795L114.578 54.3577Z" fill="#FFB6B6"/>
<path d="M125.272 40.0185C126.33 42.3767 119.878 49.1135 119.878 49.1135C118.113 50.5406 117.833 54.1124 115.646 54.5101C109.746 55.5828 113.416 54.4603 111.892 55.0464C110.457 55.5981 111.778 50.8768 110.819 50.5767C110.27 50.4051 113.322 48.4312 113.322 48.4312C113.322 48.4312 116.072 43.0376 117.763 40.2399C118.227 39.44 118.885 38.7705 119.677 38.2935C120.469 37.8165 121.368 37.5476 122.292 37.5118C122.292 37.5118 124.215 37.6604 125.272 40.0185Z" fill="#E6E6E6"/>
<path d="M97.9567 110.12H30.918C29.3291 110.118 27.8057 109.486 26.6822 108.363C25.5586 107.239 24.9266 105.716 24.9248 104.127V6.90574C24.9266 5.31679 25.5586 3.79344 26.6822 2.66989C27.8057 1.54633 29.3291 0.914331 30.918 0.912537H97.9567C99.5456 0.914332 101.069 1.54633 102.193 2.66989C103.316 3.79344 103.948 5.31679 103.95 6.90574V104.127C103.948 105.716 103.316 107.239 102.193 108.363C101.069 109.486 99.5456 110.118 97.9567 110.12Z" fill="#3F3D56"/>
<path d="M98.0753 106.296H30.8006C30.3108 106.296 29.8412 106.101 29.4949 105.755C29.1485 105.408 28.9537 104.939 28.9531 104.449V6.5838C28.9537 6.09399 29.1485 5.6244 29.4949 5.27806C29.8412 4.93171 30.3108 4.73689 30.8006 4.73633H98.0753C98.5651 4.73689 99.0347 4.93171 99.381 5.27806C99.7273 5.6244 99.9222 6.09399 99.9227 6.5838V104.449C99.9222 104.939 99.7273 105.408 99.381 105.755C99.0347 106.101 98.5651 106.296 98.0753 106.296Z" fill="white"/>
<path d="M34.0822 49.7687C34.27 47.2187 34.58 44.0838 37.103 42.7216C38.2934 42.0788 39.554 42.3062 40.7508 42.8072C41.9074 43.2914 42.9969 43.8685 44.2425 44.0961C46.3897 44.4666 48.5992 44.1353 50.5433 43.1513C52.5014 42.1776 54.0724 40.5698 55.0005 38.5895C55.4782 37.5824 55.8729 36.491 56.5767 35.612C56.9308 35.1505 57.4002 34.7905 57.9377 34.5681C58.4752 34.3456 59.0617 34.2687 59.6384 34.345C62.2838 34.6715 64.0394 36.9895 66.1483 38.354C67.1626 39.0103 68.3273 39.4894 69.5554 39.4307C70.8151 39.3704 71.957 38.7741 72.9224 37.9956C74.9707 36.3438 76.0907 33.7892 78.2404 32.2499C79.2596 31.5384 80.4423 31.0963 81.6784 30.965C82.9144 30.8336 84.1636 31.0172 85.3096 31.4987C87.5128 32.4491 89.0728 34.5786 89.4849 36.9221C89.5836 37.4995 89.6091 38.087 89.5608 38.6708C89.5339 39.015 90.0704 39.0133 90.0971 38.6708C90.1776 37.4562 89.9762 36.2395 89.5086 35.1156C89.0411 33.9917 88.3201 32.9911 87.402 32.192C85.5001 30.5512 82.8429 30.018 80.4261 30.6493C79.1955 30.9756 78.0645 31.6007 77.1336 32.4693C76.1393 33.3863 75.3551 34.4974 74.5158 35.5505C73.697 36.5779 72.7937 37.5701 71.6444 38.2337C71.0942 38.569 70.4775 38.7805 69.8372 38.8533C69.197 38.9261 68.5486 38.8585 67.9371 38.6552C66.6966 38.2368 65.6455 37.3746 64.653 36.5492C63.6299 35.6982 62.6116 34.8469 61.3819 34.3062C60.2384 33.8035 58.9272 33.5597 57.7369 34.0548C56.6638 34.5011 55.9535 35.4276 55.4271 36.4297C54.8928 37.4469 54.5122 38.5437 53.8887 39.5137C53.2857 40.442 52.5118 41.2475 51.6082 41.8871C49.7728 43.1985 47.541 43.8362 45.2898 43.6924C44.0667 43.6055 42.9546 43.219 41.847 42.7127C40.6246 42.1539 39.337 41.5726 37.9616 41.8434C36.7751 42.0769 35.7769 42.883 35.0838 43.8459C34.2837 44.9577 33.9321 46.3207 33.7486 47.6593C33.6526 48.3596 33.5977 49.064 33.5458 49.7687C33.5204 50.113 34.0569 50.1114 34.0822 49.7687Z" fill="#E4E4E4"/>
<path d="M128.893 107.536L126.346 107.536L125.135 97.7126L128.894 97.7128L128.893 107.536Z" fill="#FFB6B6"/>
<path d="M128.825 106.704L126.107 105.6L126.027 105.567L124.527 106.704C123.703 106.704 122.911 107.022 122.317 107.591C121.722 108.161 121.37 108.938 121.334 109.761C121.33 109.806 121.33 109.853 121.33 109.901V110.005H129.542V106.704H128.825Z" fill="#2F2E41"/>
<path d="M122.928 105.166L120.525 106.012L116.122 97.147L119.668 95.8995L122.928 105.166Z" fill="#FFB6B6"/>
<path d="M122.589 104.404L119.659 104.264L119.573 104.26L118.534 105.83C117.757 106.103 117.116 106.666 116.744 107.401C116.372 108.135 116.298 108.985 116.537 109.773C116.549 109.817 116.564 109.862 116.58 109.906L116.615 110.005L124.361 107.28L123.266 104.166L122.589 104.404Z" fill="#2F2E41"/>
<path d="M129.793 65.1792C132.123 65.0888 129.237 83.6569 129.237 83.6569C129.237 83.6569 130.081 99.9588 129.903 100.814C129.724 101.67 129.88 103.977 129.88 103.977C129.423 103.146 124.714 103.773 124.714 103.773L124.073 87.2513L120.802 74.0134L116.267 82.887L120.614 96.5075C120.614 96.5075 122.374 98.1363 122.187 98.78C121.999 99.4237 117.389 100.875 116.541 100.908C115.694 100.941 116.077 99.8655 116.036 98.8064C115.995 97.7473 112.008 87.9314 110.605 84.5915C109.203 81.2517 110.293 76.5423 111.009 73.1203C111.725 69.6983 115.491 63.2764 115.491 63.2764C120.166 58.0038 127.463 65.2695 129.793 65.1792Z" fill="#2F2E41"/>
<path d="M123.272 34.3295C125.727 34.3295 127.716 32.3399 127.716 29.8855C127.716 27.4311 125.727 25.4414 123.272 25.4414C120.818 25.4414 118.828 27.4311 118.828 29.8855C118.828 32.3399 120.818 34.3295 123.272 34.3295Z" fill="#FFB6B6"/>
<path d="M121.05 37.2668C120.093 37.836 119.52 38.8818 119.191 39.946C118.582 41.9162 118.216 43.9533 118.1 46.0121L116.835 58.2958L114.395 64.3436C119.614 63.8905 131.19 66.0173 131.19 66.0173C131.19 66.0173 131.62 65.874 131.19 65.4439C130.76 65.0138 130.341 65.3948 130.771 64.9648C131.201 64.5347 130.905 65.0138 130.761 64.5837C130.618 64.1537 130.761 64.4404 130.905 64.297C131.048 64.1537 129.795 62.8634 129.795 62.8634L130.942 55.3298L132.375 40.1339C130.655 37.9836 127.195 36.716 127.195 36.716L126.301 35.1068L121.832 35.4644L121.05 37.2668Z" fill="#E6E6E6"/>
<path d="M134.059 54.2559L132.957 47.7551L129.119 48.4505L129.456 54.1368L127.776 65.9728C127.385 66.1143 127.043 66.3666 126.793 66.6989C126.542 67.0313 126.394 67.4292 126.366 67.8443C126.338 68.2594 126.431 68.6737 126.635 69.0366C126.838 69.3996 127.143 69.6956 127.511 69.8885C127.88 70.0813 128.297 70.1628 128.711 70.1229C129.125 70.083 129.519 69.9235 129.844 69.6638C130.169 69.404 130.411 69.0554 130.541 68.6603C130.672 68.2652 130.684 67.8407 130.577 67.4386L134.059 54.2559Z" fill="#FFB6B6"/>
<path d="M130.89 39.0443C133.373 39.7594 134.351 49.0361 134.351 49.0361C135.476 53.5132 133.347 55.3987 132.807 55.379C131.271 55.323 130.421 54.0086 129.572 54.5475C129.087 54.8557 128.996 51.3141 128.996 51.3141C128.996 51.3141 127.255 48.0189 126.21 44.9212C125.899 44.0509 125.812 43.1159 125.959 42.2033C126.106 41.2907 126.482 40.4301 127.051 39.7017C127.051 39.7017 128.406 38.3293 130.89 39.0443Z" fill="#E6E6E6"/>
<path d="M128.358 28.5274C128.343 27.8055 128.261 26.8819 127.756 26.1454C127.329 25.5258 126.468 25.0347 125.666 25.2803C125.675 25.1198 125.639 24.96 125.563 24.8187C125.487 24.6773 125.373 24.5599 125.233 24.4794C124.926 24.3221 124.587 24.2367 124.241 24.2295C123.427 24.1536 122.584 24.0746 121.76 24.231C120.835 24.4064 120.078 24.8828 119.685 25.5389L119.676 25.5594L119.596 25.9481C119.585 26.0002 119.563 26.0494 119.531 26.0923C119.5 26.1352 119.459 26.1707 119.413 26.1965C119.366 26.2227 119.314 26.2382 119.261 26.242C119.208 26.2458 119.154 26.2377 119.105 26.2184C119.05 26.198 118.991 26.1921 118.934 26.2014C118.876 26.2107 118.822 26.2349 118.777 26.2715C118.731 26.3081 118.696 26.3559 118.675 26.4101C118.654 26.4644 118.647 26.5232 118.656 26.5809L118.678 26.7358L118.445 26.6919C118.387 26.6806 118.327 26.6851 118.271 26.7049C118.215 26.7247 118.165 26.7591 118.127 26.8045C118.089 26.8499 118.063 26.9048 118.053 26.9633C118.043 27.0219 118.049 27.0821 118.07 27.1376L118.134 27.3145C118.086 27.3151 118.039 27.3254 117.995 27.3447C117.951 27.3641 117.911 27.392 117.878 27.427C117.832 27.4779 117.802 27.5425 117.794 27.6113C117.786 27.6801 117.8 27.7496 117.835 27.8099C118.095 28.2544 118.464 28.6255 118.907 28.8883C119.107 29.0084 119.321 29.1003 119.546 29.1616C119.593 29.1748 119.641 29.1865 119.691 29.1967C121.485 29.5834 123.335 29.6388 125.149 29.3604C125.042 29.7183 125.001 30.0926 125.027 30.4651C125.043 30.6764 125.116 30.8794 125.239 31.052C125.362 31.2246 125.53 31.3602 125.724 31.4442C125.807 31.4723 125.892 31.4928 125.979 31.5056C126.062 31.519 126.143 31.5391 126.223 31.5655C126.34 31.6086 126.444 31.6819 126.524 31.7781C126.605 31.8743 126.658 31.9899 126.679 32.1133C126.7 32.2367 126.688 32.3635 126.644 32.4808C126.601 32.5981 126.527 32.7018 126.43 32.7814C126.43 32.7814 126.813 33.0985 126.861 33.0824C127.05 32.9993 127.207 32.8593 127.311 32.682C128.041 31.6327 128.393 30.2357 128.358 28.5274Z" fill="#2F2E41"/>
<path d="M11.9302 95.5567L11.4081 98.1759C11.3688 98.3762 11.3276 98.58 11.2829 98.782C10.8466 98.6916 10.3942 98.7169 9.97063 98.8554C10.3067 99.3355 10.6078 99.8392 10.8717 100.363C10.5428 101.376 10.06 102.313 9.25189 102.991C8.71215 103.433 8.0675 103.729 7.38011 103.85C6.69272 103.971 5.98577 103.913 5.32745 103.681L5.3507 103.577C4.48178 101.891 4.95378 99.7654 6.03367 98.2081C6.58446 97.4399 7.23705 96.75 7.97355 96.1574C8.703 95.5495 9.49147 95.0042 10.2728 94.4661C10.4483 94.3454 10.6557 94.2798 10.8687 94.2776C11.0817 94.2754 11.2904 94.3368 11.4683 94.4539C11.6462 94.5709 11.7852 94.7384 11.8675 94.9348C11.9497 95.1313 11.9716 95.3478 11.9302 95.5567Z" fill="#E4E4E4"/>
<path d="M5.5142 109.983C5.29447 108.383 5.06848 106.761 5.22259 105.144C5.35955 103.707 5.79776 102.304 6.69028 101.153C7.16399 100.543 7.74041 100.021 8.39361 99.6093C8.564 99.5021 8.72062 99.7719 8.55112 99.8788C7.42095 100.593 6.54679 101.648 6.05468 102.891C5.51116 104.273 5.42391 105.78 5.51831 107.249C5.57499 108.137 5.69496 109.019 5.816 109.9C5.82574 109.94 5.81988 109.982 5.7996 110.018C5.77933 110.054 5.74618 110.08 5.70694 110.092C5.66702 110.103 5.62446 110.098 5.58851 110.077C5.55255 110.057 5.52611 110.023 5.51491 109.983L5.5142 109.983Z" fill="#F2F2F2"/>
<path d="M64.1827 3.25784C64.4643 3.25784 64.6925 3.02958 64.6925 2.748C64.6925 2.46642 64.4643 2.23816 64.1827 2.23816C63.9011 2.23816 63.6729 2.46642 63.6729 2.748C63.6729 3.02958 63.9011 3.25784 64.1827 3.25784Z" fill="white"/>
<path d="M93.9917 49.9432H33.5174C33.4672 49.9432 33.4191 49.9233 33.3836 49.8878C33.3481 49.8523 33.3281 49.8042 33.3281 49.754L33.42 49.5434L93.9916 49.5647C94.0418 49.5645 94.09 49.5843 94.1257 49.6196C94.1613 49.655 94.1814 49.7031 94.1816 49.7533C94.1818 49.8035 94.162 49.8517 94.1267 49.8873C94.0913 49.9229 94.0432 49.943 93.993 49.9432L93.9917 49.9432Z" fill="#3F3D56"/>
<path d="M45.0196 48.6192H44.6484V49.6769H45.0196V48.6192Z" fill="#3F3D56"/>
<path d="M56.1329 42.5404H55.7617V49.6769H56.1329V42.5404Z" fill="#3F3D56"/>
<path d="M67.2687 33.9585H66.8975V49.6769H67.2687V33.9585Z" fill="#3F3D56"/>
<path d="M78.4044 26.6281H78.0332V49.6769H78.4044V26.6281Z" fill="#3F3D56"/>
<path d="M89.5401 43.4343H89.1689V49.6769H89.5401V43.4343Z" fill="#3F3D56"/>
<path d="M78.242 25.3434C78.8691 25.3434 79.3775 24.835 79.3775 24.2079C79.3775 23.5807 78.8691 23.0723 78.242 23.0723C77.6148 23.0723 77.1064 23.5807 77.1064 24.2079C77.1064 24.835 77.6148 25.3434 78.242 25.3434Z" fill="#00CFFF"/>
<path d="M67.285 32.0045C67.9121 32.0045 68.4205 31.4961 68.4205 30.869C68.4205 30.2418 67.9121 29.7334 67.285 29.7334C66.6578 29.7334 66.1494 30.2418 66.1494 30.869C66.1494 31.4961 66.6578 32.0045 67.285 32.0045Z" fill="#00CFFF"/>
<path d="M89.3777 42.4782C90.0049 42.4782 90.5133 41.9698 90.5133 41.3427C90.5133 40.7155 90.0049 40.2071 89.3777 40.2071C88.7506 40.2071 88.2422 40.7155 88.2422 41.3427C88.2422 41.9698 88.7506 42.4782 89.3777 42.4782Z" fill="#00CFFF"/>
<path d="M55.6504 89.326V75.9277C55.6504 75.7558 55.8502 75.6165 56.0968 75.6165H58.0889C58.3354 75.6165 58.5353 75.7558 58.5353 75.9277V89.3609L55.6504 89.326Z" fill="#3F3D56"/>
<path d="M62.2305 89.371V79.1337C62.2305 78.9686 62.4303 78.8347 62.6769 78.8347H64.669C64.9155 78.8347 65.1154 78.9686 65.1154 79.1337V89.349L62.2305 89.371Z" fill="#3F3D56"/>
<path d="M75.3897 89.3472V84.1405C75.3723 84.0783 75.5714 84.0243 75.8361 84.0196H77.8282C78.0929 84.0243 78.2921 84.0783 78.2746 84.1405V89.3608L75.3897 89.3472Z" fill="#3F3D56"/>
<path d="M49.0713 89.3473V84.1405C49.0713 84.0737 49.2712 84.0196 49.5177 84.0196H51.5098C51.7563 84.0196 51.9562 84.0738 51.9562 84.1405V89.3608L49.0713 89.3473Z" fill="#3F3D56"/>
<path d="M68.8096 89.2953V64.1527C68.8096 63.8303 69.0094 63.5688 69.256 63.5688H71.2481C71.4946 63.5688 71.6945 63.8303 71.6945 64.1527V89.3609L68.8096 89.2953Z" fill="#00CFFF"/>
<path d="M86.8598 89.5923H41.8048C41.7573 89.5923 41.7119 89.5734 41.6783 89.5399C41.6448 89.5064 41.626 89.4609 41.626 89.4135C41.626 89.3661 41.6448 89.3206 41.6783 89.287C41.7119 89.2535 41.7573 89.2347 41.8048 89.2347H86.8598C86.9072 89.2347 86.9527 89.2535 86.9862 89.287C87.0198 89.3206 87.0386 89.3661 87.0386 89.4135C87.0386 89.4609 87.0198 89.5064 86.9862 89.5399C86.9527 89.5734 86.9072 89.5923 86.8598 89.5923Z" fill="#3F3D56"/>
<path d="M138.729 110.332H0.881915C0.834497 110.332 0.789021 110.313 0.755491 110.28C0.721962 110.246 0.703125 110.201 0.703125 110.153C0.703125 110.106 0.721962 110.06 0.755491 110.027C0.789021 109.993 0.834497 109.974 0.881915 109.974H138.729C138.776 109.974 138.822 109.993 138.855 110.027C138.889 110.06 138.908 110.106 138.908 110.153C138.908 110.201 138.889 110.246 138.855 110.28C138.822 110.313 138.776 110.332 138.729 110.332Z" fill="#CACACA"/>
<path d="M44.8855 47.4435C45.5127 47.4435 46.0211 46.9351 46.0211 46.308C46.0211 45.6808 45.5127 45.1724 44.8855 45.1724C44.2584 45.1724 43.75 45.6808 43.75 46.308C43.75 46.9351 44.2584 47.4435 44.8855 47.4435Z" fill="#00CFFF"/>
<path d="M55.9705 41.1859C56.5976 41.1859 57.106 40.6775 57.106 40.0503C57.106 39.4232 56.5976 38.9148 55.9705 38.9148C55.3434 38.9148 54.835 39.4232 54.835 40.0503C54.835 40.6775 55.3434 41.1859 55.9705 41.1859Z" fill="#00CFFF"/>
</g>
<defs>
<clipPath id="clip0_259_2062">
<rect width="138.205" height="109.419" fill="white" transform="translate(0.703125 0.912537)"/>
</clipPath>
</defs>
</svg>
