<svg width="232" height="125" viewBox="0 0 232 125" fill="none" xmlns="http://www.w3.org/2000/svg">
<g clip-path="url(#clip0_259_2200)">
<path d="M9.44699 124.181L9.43357 123.924C9.43072 123.868 9.1805 118.243 12.6879 114.503C16.1954 110.762 22.2155 110.233 22.2758 110.228L22.5508 110.205L22.5641 110.462C22.567 110.518 22.8171 116.143 19.3098 119.883C15.8023 123.624 9.78219 124.153 9.7219 124.158L9.44699 124.181ZM13.0704 114.813C10.1049 117.976 9.91478 122.539 9.91626 123.68C11.131 123.526 15.9647 122.732 18.9273 119.572C21.8896 116.413 22.082 111.848 22.0815 110.706C20.866 110.86 16.0329 111.654 13.0704 114.813Z" fill="#F0F0F0"/>
<path d="M14.8768 115.875C14.1202 120.905 9.56426 124.144 9.56426 124.144C9.56426 124.144 6.23511 119.227 6.99176 114.197C7.74841 109.167 12.3043 105.928 12.3043 105.928C12.3043 105.928 15.6335 110.845 14.8768 115.875Z" fill="#F0F0F0"/>
<path d="M231.538 4.85938H85.3779V74.215H231.538V4.85938Z" fill="#E6E6E6"/>
<path d="M227.358 10.8067H89.5566V68.6722H227.358V10.8067Z" fill="white"/>
<path d="M231.476 0.852234H85.3154V7.06156H231.476V0.852234Z" fill="#00CFFF"/>
<path d="M89.9302 4.8753C90.5658 4.8753 91.0811 4.36003 91.0811 3.72442C91.0811 3.08881 90.5658 2.57355 89.9302 2.57355C89.2946 2.57355 88.7793 3.08881 88.7793 3.72442C88.7793 4.36003 89.2946 4.8753 89.9302 4.8753Z" fill="white"/>
<path d="M94.2983 4.8753C94.9339 4.8753 95.4492 4.36003 95.4492 3.72442C95.4492 3.08881 94.9339 2.57355 94.2983 2.57355C93.6627 2.57355 93.1475 3.08881 93.1475 3.72442C93.1475 4.36003 93.6627 4.8753 94.2983 4.8753Z" fill="white"/>
<path d="M98.6665 4.8753C99.3021 4.8753 99.8174 4.36003 99.8174 3.72442C99.8174 3.08881 99.3021 2.57355 98.6665 2.57355C98.0309 2.57355 97.5156 3.08881 97.5156 3.72442C97.5156 4.36003 98.0309 4.8753 98.6665 4.8753Z" fill="white"/>
<path d="M141.638 33.8824H112.421V58.7683H141.638V33.8824Z" fill="white"/>
<path d="M141.723 58.8532H112.336V33.7974H141.723V58.8532ZM112.506 58.6833H141.554V33.9673H112.506V58.6833Z" fill="#3F3D56"/>
<path d="M130.682 38.7236H123.378V58.7683H130.682V38.7236Z" fill="#00CFFF"/>
<path d="M130.682 38.7236H123.378V58.7683H130.682V38.7236Z" fill="#00CFFF"/>
<path opacity="0.2" d="M112.506 35.7086V39.7461L141.639 41.6115L141.553 36.6294L112.506 35.7086Z" fill="black"/>
<path d="M143.338 31.5891H110.723V38.7236H143.338V31.5891Z" fill="white"/>
<path d="M143.423 38.8086H110.638V31.5042H143.423V38.8086ZM110.808 38.6388H143.253V31.6741H110.808L110.808 38.6388Z" fill="#3F3D56"/>
<path d="M130.682 30.9097H123.378V38.6388H130.682V30.9097Z" fill="#00CFFF"/>
<path d="M126.248 24.1706C128.176 27.0288 126.359 31.6258 126.359 31.6258C126.359 31.6258 121.417 31.5888 119.488 28.7306C117.56 25.8724 119.377 21.2754 119.377 21.2754C119.377 21.2754 124.32 21.3124 126.248 24.1706Z" fill="#00CFFF"/>
<path d="M127.132 24.1706C125.204 27.0288 127.02 31.6258 127.02 31.6258C127.02 31.6258 131.963 31.5888 133.891 28.7306C135.82 25.8724 134.003 21.2754 134.003 21.2754C134.003 21.2754 129.06 21.3124 127.132 24.1706Z" fill="#00CFFF"/>
<path d="M121.933 26.3232C122.356 26.3232 122.698 25.981 122.698 25.5588C122.698 25.1366 122.356 24.7944 121.933 24.7944C121.511 24.7944 121.169 25.1366 121.169 25.5588C121.169 25.981 121.511 26.3232 121.933 26.3232Z" fill="#3F3D56"/>
<path d="M126.52 34.0523C126.942 34.0523 127.285 33.71 127.285 33.2879C127.285 32.8657 126.942 32.5234 126.52 32.5234C126.098 32.5234 125.756 32.8657 125.756 33.2879C125.756 33.71 126.098 34.0523 126.52 34.0523Z" fill="#3F3D56"/>
<path d="M126.52 50.7844C126.942 50.7844 127.285 50.4421 127.285 50.02C127.285 49.5978 126.942 49.2556 126.52 49.2556C126.098 49.2556 125.756 49.5978 125.756 50.02C125.756 50.4421 126.098 50.7844 126.52 50.7844Z" fill="#3F3D56"/>
<path d="M123.972 28.8713C124.253 28.8713 124.481 28.6431 124.481 28.3617C124.481 28.0802 124.253 27.8521 123.972 27.8521C123.69 27.8521 123.462 28.0802 123.462 28.3617C123.462 28.6431 123.69 28.8713 123.972 28.8713Z" fill="#3F3D56"/>
<path d="M131.616 24.5396C131.898 24.5396 132.126 24.3114 132.126 24.03C132.126 23.7485 131.898 23.5204 131.616 23.5204C131.335 23.5204 131.106 23.7485 131.106 24.03C131.106 24.3114 131.335 24.5396 131.616 24.5396Z" fill="#3F3D56"/>
<path d="M128.304 36.5153C128.585 36.5153 128.813 36.2872 128.813 36.0057C128.813 35.7243 128.585 35.4961 128.304 35.4961C128.022 35.4961 127.794 35.7243 127.794 36.0057C127.794 36.2872 128.022 36.5153 128.304 36.5153Z" fill="#3F3D56"/>
<path d="M125.246 43.1404C125.527 43.1404 125.756 42.9122 125.756 42.6308C125.756 42.3493 125.527 42.1212 125.246 42.1212C124.964 42.1212 124.736 42.3493 124.736 42.6308C124.736 42.9122 124.964 43.1404 125.246 43.1404Z" fill="#3F3D56"/>
<path d="M127.879 45.4335C128.16 45.4335 128.388 45.2054 128.388 44.9239C128.388 44.6425 128.16 44.4143 127.879 44.4143C127.597 44.4143 127.369 44.6425 127.369 44.9239C127.369 45.2054 127.597 45.4335 127.879 45.4335Z" fill="#3F3D56"/>
<path d="M127.284 55.0312C127.565 55.0312 127.794 54.803 127.794 54.5216C127.794 54.2401 127.565 54.012 127.284 54.012C127.003 54.012 126.774 54.2401 126.774 54.5216C126.774 54.803 127.003 55.0312 127.284 55.0312Z" fill="#3F3D56"/>
<path d="M203.597 45.6019H160.239C159.697 45.6019 159.177 45.3868 158.794 45.0038C158.411 44.6208 158.196 44.1013 158.196 43.5597C158.196 43.0181 158.411 42.4986 158.794 42.1156C159.177 41.7326 159.697 41.5175 160.239 41.5175H203.597C204.138 41.5175 204.658 41.7326 205.041 42.1156C205.424 42.4986 205.639 43.0181 205.639 43.5597C205.639 44.1013 205.424 44.6208 205.041 45.0038C204.658 45.3868 204.138 45.6019 203.597 45.6019Z" fill="#E4E4E4"/>
<path d="M189.615 38.6112H160.239C159.697 38.6112 159.177 38.396 158.794 38.013C158.411 37.63 158.196 37.1106 158.196 36.569C158.196 36.0273 158.411 35.5079 158.794 35.1249C159.177 34.7419 159.697 34.5267 160.239 34.5267H189.615C190.157 34.5267 190.676 34.7419 191.059 35.1249C191.442 35.5079 191.657 36.0273 191.657 36.569C191.657 37.1106 191.442 37.63 191.059 38.013C190.676 38.396 190.157 38.6112 189.615 38.6112Z" fill="#E4E4E4"/>
<path d="M200.628 58.8532C202.074 57.5919 204.408 56.4011 206.289 55.7039C204.408 55.0059 202.074 53.8151 200.628 52.5538L201.647 55.3727H196.357V56.035H201.647L200.628 58.8532Z" fill="#3F3D56"/>
<path d="M63.0738 65.6028C62.7937 65.4077 62.4743 65.2764 62.1379 65.2182C61.8016 65.1599 61.4566 65.1761 61.1272 65.2656C60.7978 65.3551 60.492 65.5157 60.2314 65.7362C59.9708 65.9567 59.7617 66.2316 59.6189 66.5416L54.2873 66.3359L53.3721 69.5454L60.9054 69.7301C61.4421 69.9356 62.0355 69.9371 62.5733 69.7343C63.111 69.5315 63.5556 69.1384 63.8229 68.6297C64.0902 68.1209 64.1616 67.5318 64.0236 66.9739C63.8855 66.416 63.5476 65.9282 63.0738 65.6028Z" fill="#FFB6B6"/>
<path d="M58.7904 70.1316L53.3561 70.814L52.6681 70.8996L41.6116 72.2865C41.6116 72.2865 38.219 69.8415 35.2022 67.2583V64.5619C35.2 61.9159 36.1592 59.3593 37.9013 57.3677C41.9846 59.3486 44.8358 63.9928 44.8358 63.9928L51.9057 64.6835L52.6129 64.7525L57.0057 65.1808L58.7904 70.1316Z" fill="#E4E4E4"/>
<path d="M36.201 91.7826H46.4236C46.4236 92.2206 57.5984 92.5761 57.5984 92.5761C57.8449 92.7617 58.0695 92.9747 58.2681 93.2109C58.8646 93.9224 59.1906 94.8217 59.1887 95.7502V96.385C59.1883 97.4371 58.7701 98.4461 58.0261 99.19C57.2822 99.934 56.2732 100.352 55.2211 100.353H36.201C35.149 100.352 34.1403 99.9333 33.3965 99.1895C32.6526 98.4456 32.2343 97.437 32.2334 96.385V95.7502C32.2349 94.6984 32.6533 93.69 33.3971 92.9463C34.1408 92.2025 35.1492 91.7841 36.201 91.7826Z" fill="#3F3D56"/>
<path d="M47.761 100.195H43.6348V124.012H47.761V100.195Z" fill="#3F3D56"/>
<path d="M59.5049 123.867C59.5049 124.313 53.2522 124.039 45.5391 124.039C37.826 124.039 31.5732 124.313 31.5732 123.867C31.5732 123.421 37.826 119.886 45.5391 119.886C53.2522 119.886 59.5049 123.421 59.5049 123.867Z" fill="#3F3D56"/>
<path d="M62.2769 121.145H65.3477L66.8086 109.3H62.2764L62.2769 121.145Z" fill="#FFB6B6"/>
<path d="M61.4941 120.143L67.5419 120.143C68.5641 120.143 69.5446 120.549 70.2674 121.272C70.9902 121.994 71.3963 122.975 71.3963 123.997V124.122L61.4943 124.122L61.4941 120.143Z" fill="#2F2E41"/>
<path d="M71.3528 121.145H74.4239L75.8848 109.3H71.3525L71.3528 121.145Z" fill="#FFB6B6"/>
<path d="M70.5703 120.143L76.6181 120.143C77.6403 120.143 78.6208 120.549 79.3436 121.272C80.0663 121.994 80.4724 122.975 80.4725 123.997V124.122L70.5705 124.122L70.5703 120.143Z" fill="#2F2E41"/>
<path d="M45.5846 52.9523C48.5336 52.9523 50.9241 50.5618 50.9241 47.6128C50.9241 44.6639 48.5336 42.2733 45.5846 42.2733C42.6357 42.2733 40.2451 44.6639 40.2451 47.6128C40.2451 50.5618 42.6357 52.9523 45.5846 52.9523Z" fill="#FFB6B6"/>
<path d="M46.1863 45.0662C46.1863 45.0662 48.0855 42.4261 49.8546 45.0673C51.6237 47.7085 53.3732 44.5046 52.9668 43.4982C52.5603 42.4918 52.6674 42.3705 49.7203 41.0635C46.7732 39.7565 41.1073 37.1284 39.4495 43.6509C37.7917 50.1735 41.1839 50.2967 41.1839 50.2967C41.1839 50.2967 41.876 43.9586 42.6747 45.7431L43.4735 47.5275L44.2941 47.8204L46.1863 45.0662Z" fill="#2F2E41"/>
<path d="M35.2029 84.197C35.2029 84.197 33.4113 93.6706 40.228 94.8769C47.0446 96.0833 56.8846 96.9312 56.8846 96.9312L61.3034 117.548L67.24 117.018C67.24 117.018 66.4504 92.2001 64.5088 90.2584C62.5671 88.3168 50.2952 82.5031 50.2952 82.5031L35.2029 84.197Z" fill="#2F2E41"/>
<path d="M48.5157 80.2266L51.4969 83.2174C51.4969 83.2174 73.0235 86.6848 73.8539 91.6567C75.1077 99.1631 76.5886 115.486 76.5886 115.486L70.1164 115.001L67.5784 96.4458L57.223 94.0903L45.4414 87.6696L48.5157 80.2266Z" fill="#2F2E41"/>
<path d="M51.1237 82.7794C51.1237 82.7794 34.4948 89.294 34.8594 85.462C35.2822 81.0223 35.2021 79.0884 35.2021 79.0884V64.5619C35.2027 62.5773 35.7429 60.6302 36.7649 58.9289C37.7868 57.2276 39.252 55.8361 41.0038 54.9034L46.6177 54.9973L48.3499 57.2931C49.7423 64.2691 50.0186 65.0979 50.0186 65.0979L51.179 68.275L51.4221 70.2614L50.5711 74.4912L51.1237 82.7794Z" fill="#E4E4E4"/>
<path d="M64.779 65.6184L64.7464 65.6083L65.2924 63.8516C65.4669 63.2901 65.3765 62.7628 65.0905 62.6739L63.1947 62.0847C62.9087 61.9957 62.5354 62.3789 62.3608 62.9404L59.3653 72.5775C59.1907 73.139 59.2811 73.6663 59.5671 73.7552L61.4629 74.3445C61.749 74.4334 62.1223 74.0503 62.2969 73.4888L64.3577 66.8587L64.3904 66.8688L64.779 65.6184Z" fill="#00CFFF"/>
<path d="M65.0554 65.8946L65.0227 65.8844L65.5688 64.1278C65.7433 63.5663 65.6529 63.039 65.3669 62.9501L63.4711 62.3608C63.1851 62.2719 62.8117 62.6551 62.6372 63.2166L59.6416 72.8537C59.4671 73.4152 59.5575 73.9425 59.8435 74.0314L61.7393 74.6207C62.0253 74.7096 62.3987 74.3265 62.5732 73.7649L64.6341 67.1349L64.6667 67.145L65.0554 65.8946Z" fill="#3F3D56"/>
<path d="M63.8222 65.7528C63.9291 65.4089 63.8737 65.0859 63.6985 65.0315C63.5233 64.977 63.2946 65.2117 63.1877 65.5556C63.0808 65.8996 63.1362 66.2226 63.3114 66.277C63.4866 66.3315 63.7153 66.0968 63.8222 65.7528Z" fill="#D0CDE1"/>
<path d="M64.2819 69.7469C64.0018 69.5518 63.6823 69.4205 63.346 69.3623C63.0096 69.304 62.6646 69.3202 62.3352 69.4097C62.0058 69.4992 61.7 69.6598 61.4394 69.8803C61.1789 70.1008 60.9698 70.3757 60.8269 70.6857L55.4953 70.48L54.5801 73.6895L62.1134 73.8742C62.6501 74.0797 63.2435 74.0812 63.7813 73.8784C64.319 73.6756 64.7636 73.2825 65.0309 72.7738C65.2982 72.265 65.3696 71.6759 65.2316 71.118C65.0935 70.5601 64.7556 70.0723 64.2819 69.7469Z" fill="#FFB6B6"/>
<path d="M59.9977 74.2757L53.8755 75.0437L42.819 76.4306C42.819 76.4306 38.4345 73.27 35.2021 70.3387V64.5619C35.2018 63.2216 35.4481 61.8927 35.9287 60.6415C41.631 60.9537 46.0431 68.1368 46.0431 68.1368L53.113 68.8275L58.213 69.3248L59.9977 74.2757Z" fill="#E4E4E4"/>
<path d="M105.89 124.497H0.62979C0.556517 124.497 0.486246 124.468 0.434434 124.416C0.382623 124.364 0.353516 124.294 0.353516 124.22C0.353516 124.147 0.382623 124.077 0.434434 124.025C0.486246 123.973 0.556517 123.944 0.62979 123.944H105.89C105.963 123.944 106.034 123.973 106.086 124.025C106.137 124.077 106.166 124.147 106.166 124.22C106.166 124.294 106.137 124.364 106.086 124.416C106.034 124.468 105.963 124.497 105.89 124.497Z" fill="#CACACA"/>
</g>
<defs>
<clipPath id="clip0_259_2200">
<rect width="231.185" height="123.645" fill="white" transform="translate(0.353516 0.852234)"/>
</clipPath>
</defs>
</svg>
