<svg width="52" height="52" viewBox="0 0 52 52" fill="none" xmlns="http://www.w3.org/2000/svg">
<circle cx="25.9163" cy="25.5833" r="25.5833" fill="white"/>
<path fill-rule="evenodd" clip-rule="evenodd" d="M17.9584 10.6598C14.1111 10.6598 10.9923 13.7786 10.9923 17.6259V33.69C10.9923 37.5372 14.1111 40.6561 17.9584 40.6561H34.0225C37.8698 40.6561 40.9886 37.5372 40.9886 33.69V17.6259C40.9886 13.7786 37.8698 10.6598 34.0225 10.6598H17.9584ZM8.86035 17.6259C8.86035 12.6012 12.9337 8.52783 17.9584 8.52783H34.0225C39.0472 8.52783 43.1205 12.6012 43.1205 17.6259V33.69C43.1205 38.7147 39.0472 42.788 34.0225 42.788H17.9584C12.9337 42.788 8.86035 38.7147 8.86035 33.69V17.6259ZM26.8464 20.2865C25.7313 20.1212 24.5924 20.3116 23.5917 20.8309C22.5911 21.3501 21.7796 22.1716 21.2728 23.1786C20.7659 24.1855 20.5895 25.3267 20.7686 26.4397C20.9477 27.5527 21.4732 28.5809 22.2704 29.3781C23.0675 30.1752 24.0957 30.7007 25.2087 30.8798C26.3218 31.0589 27.4629 30.8825 28.4699 30.3757C29.4769 29.8688 30.2984 29.0574 30.8176 28.0567C31.3368 27.0561 31.5273 25.9172 31.3619 24.802C31.1933 23.6646 30.6632 22.6115 29.8501 21.7984C29.037 20.9852 27.9839 20.4552 26.8464 20.2865ZM22.6098 18.9385C24.0085 18.2127 25.6004 17.9465 27.1591 18.1776C28.7491 18.4134 30.2211 19.1543 31.3576 20.2908C32.4942 21.4274 33.2351 22.8994 33.4708 24.4893C33.702 26.048 33.4357 27.64 32.71 29.0386C31.9842 30.4373 30.8359 31.5715 29.4284 32.28C28.0209 32.9884 26.4258 33.235 24.87 32.9847C23.3143 32.7344 21.8771 31.9998 20.7629 30.8856C19.6486 29.7714 18.9141 28.3342 18.6638 26.7784C18.4134 25.2227 18.66 23.6276 19.3685 22.2201C20.0769 20.8125 21.2111 19.6642 22.6098 18.9385ZM34.8257 15.7565C34.237 15.7565 33.7598 16.2337 33.7598 16.8224C33.7598 17.4111 34.237 17.8884 34.8257 17.8884H34.8442C35.4329 17.8884 35.9101 17.4111 35.9101 16.8224C35.9101 16.2337 35.4329 15.7565 34.8442 15.7565H34.8257Z" fill="black"/>
</svg>
